<svg id="icon-taxi-2" xmlns="http://www.w3.org/2000/svg" xml:space="preserve" viewBox="-289 381 32 32"><path fill="currentColor" d="M-275.1 387c-.4 0-.8.3-.9.6l-.4 1.2h-1.6c-1.6 0-3 1-3.5 2.4l-1.9 5.4c-1 .7-1.7 1.8-1.7 3.1v6.5c0 1 .8 1.8 1.8 1.8s1.8-.8 1.8-1.8V405s4.9.2 8.3.2c3.4 0 8.3-.2 8.3-.2v1.2c0 1 .8 1.8 1.8 1.8s1.8-.8 1.8-1.8v-6.5c0-1.2-.6-2.4-1.7-3.1l-1.9-5.4c-.5-1.5-1.9-2.5-3.5-2.4h-1.6l-.4-1.2c-.1-.4-.5-.6-.9-.6h-3.8zm-2.9 3.7h9.9c.8 0 1.5.5 1.7 1.2l1.1 3c.1.3-.1.7-.4.8h-.3c-1.8-.3-4.1-.5-7-.5s-5.2.2-7 .5c-.4.1-.7-.2-.8-.5v-.3l1.1-3c.3-.8 1-1.2 1.7-1.2zm-2.8 8.2c.8 0 1.4.6 1.4 1.4 0 .8-.6 1.4-1.4 1.4-.8 0-1.4-.6-1.4-1.4 0-.8.6-1.4 1.4-1.4zm5 0h5.5c.5 0 .9.4.9.9s-.4.9-.9.9h-5.5c-.5 0-.9-.4-.9-.9s.4-.9.9-.9zm10.6 0c.8 0 1.4.6 1.4 1.4 0 .8-.6 1.4-1.4 1.4-.8 0-1.4-.6-1.4-1.4.1-.8.7-1.4 1.4-1.4z"/></svg>