<svg id="icon-instagram-2" xmlns="http://www.w3.org/2000/svg" viewBox="0 0 40 40" color="#d4d4d8" fill="currentColor"><path d="M20 10.637c-5.08 0-9.29 4.137-9.29 9.29s4.137 9.29 9.29 9.29 9.29-4.209 9.29-9.29-4.21-9.29-9.29-9.29zm0 15.242c-3.266 0-5.952-2.685-5.952-5.952s2.686-5.951 5.952-5.951 5.952 2.685 5.952 5.951S23.266 25.88 20 25.88zm9.653-13.355a2.105 2.105 0 100-4.21 2.105 2.105 0 000 4.21zm5.444-7.548C33.21 3.016 30.524 2 27.476 2H12.524C6.21 2 2 6.21 2 12.524v14.88c0 3.12 1.016 5.806 3.048 7.765C7.008 37.057 9.621 38 12.597 38h14.806c3.121 0 5.734-1.016 7.621-2.83C36.984 33.281 38 30.596 38 27.475V12.524c0-3.048-1.016-5.661-2.903-7.548zm-.29 22.5c0 2.25-.799 4.064-2.105 5.298s-3.121 1.887-5.299 1.887H12.597c-2.178 0-3.992-.653-5.299-1.887-1.306-1.306-1.96-3.12-1.96-5.37v-14.88c0-2.177.654-3.992 1.96-5.298 1.234-1.234 3.121-1.887 5.299-1.887h14.951c2.178 0 3.992.653 5.299 1.96 1.234 1.306 1.96 3.12 1.96 5.225v14.952z"/></svg>