<svg id="icon-linkedin-2" xmlns="http://www.w3.org/2000/svg" viewBox="0 0 40 40" color="#d4d4d8" fill="currentColor"><path d="M11.887 33.454H6.15V15h5.736v18.454zM8.98 12.736C7.17 12.736 6 11.453 6 9.868 6 8.245 7.208 7 9.057 7s2.98 1.245 3.019 2.868c0 1.585-1.17 2.868-3.095 2.868zM34 33.454h-5.736V23.227c0-2.377-.83-4-2.906-4-1.585 0-2.528 1.094-2.943 2.15-.151.378-.189.907-.189 1.435v10.642H16.49V20.887L16.34 15h4.98l.264 2.566h.114c.754-1.207 2.604-2.98 5.698-2.98 3.774 0 6.604 2.528 6.604 7.962v10.906z"/></svg>