<svg xmlns="http://www.w3.org/2000/svg" width="28" height="140"  fill="none"><svg width="28" height="28"><path d="M20.1 9.73h-3.988V7.113c0-.982.65-1.21 1.1-1.21h2.813V1.584L16.17 1.57c-4.303 0-5.282 3.22-5.282 5.282V9.73H8.4v4.45h2.488v12.6h5.234v-12.6h3.53l.457-4.45z" fill="#fff"/></svg><svg width="28" height="28" y="28"><path d="M14 7.615a6.52 6.52 0 00-6.503 6.503A6.483 6.483 0 0014 20.622a6.52 6.52 0 006.503-6.504c0-3.556-2.947-6.503-6.503-6.503zm0 10.67a4.19 4.19 0 01-4.166-4.167A4.19 4.19 0 0114 9.952a4.19 4.19 0 014.166 4.166A4.19 4.19 0 0114 18.285zm6.757-9.35a1.473 1.473 0 100-2.946 1.473 1.473 0 000 2.946zm3.81-5.283c-1.32-1.37-3.2-2.083-5.335-2.083H8.767C4.347 1.57 1.4 4.516 1.4 8.936v10.416c0 2.184.7 4.064 2.134 5.436 1.372 1.32 3.2 1.98 5.284 1.98h10.364c2.185 0 4.014-.7 5.335-1.98 1.372-1.32 2.083-3.2 2.083-5.386V8.936c0-2.134-.7-3.963-2.032-5.284zm-.204 15.75c0 1.575-.56 2.846-1.473 3.7s-2.185 1.32-3.7 1.32H8.818c-1.525 0-2.795-.457-3.7-1.32-.914-.915-1.37-2.185-1.37-3.76V8.936c0-1.524.457-2.794 1.372-3.7.863-.863 2.184-1.32 3.7-1.32h10.466c1.524 0 2.794.457 3.7 1.37.863.915 1.37 2.185 1.37 3.658V19.4z" fill="#fff"/></svg><svg width="28" height="28" y="56"><path d="M8.32 23.587H4.307V10.67H8.32v12.917zM6.287 9.085C5.02 9.085 4.2 8.187 4.2 7.077c0-1.136.846-2.008 2.14-2.008s2.087.872 2.113 2.008c0 1.1-.82 2.008-2.166 2.008zM23.8 23.587h-4.015v-7.16c0-1.664-.58-2.8-2.034-2.8-1.1 0-1.77.766-2.06 1.506-.106.264-.133.634-.133 1.004v7.45h-4.015V14.8l-.105-4.12h3.486l.185 1.796h.08c.528-.845 1.822-2.087 3.988-2.087 2.642 0 4.623 1.77 4.623 5.574v7.634z" fill="#fff"/></svg><svg width="28" height="28" y="84"><path d="M26.6 6.093a10.28 10.28 0 01-2.97.814 5.18 5.18 0 002.274-2.86 10.349 10.349 0 01-3.283 1.255 5.17 5.17 0 00-8.81 4.715A14.68 14.68 0 013.154 4.615a5.144 5.144 0 00-.7 2.6c0 1.793.913 3.376 2.3 4.303a5.154 5.154 0 01-2.341-.647v.065a5.174 5.174 0 004.147 5.07 5.2 5.2 0 01-2.335.088 5.176 5.176 0 004.83 3.59 10.372 10.372 0 01-6.422 2.214c-.417 0-.828-.025-1.233-.073a14.63 14.63 0 007.925 2.323c9.51 0 14.71-7.878 14.71-14.71a16.6 16.6 0 00-.014-.67A10.47 10.47 0 0026.6 6.093z" fill="#fff"/></svg><svg width="28" height="28"  y="112"><path fill-rule="evenodd" d="M25.347 5.78c.755.815 1 2.67 1 2.67s.253 2.175.253 4.35v2.04c0 2.175-.252 4.35-.252 4.35s-.247 1.853-1 2.667c-.865.965-1.822 1.065-2.363 1.12a6.92 6.92 0 00-.162.018l-8.822.28-8.568-.27a4.321 4.321 0 00-.342-.05c-.64-.083-1.64-.212-2.437-1.1-.755-.814-1-2.667-1-2.667s-.252-2.174-.252-4.35v-2.04c0-2.174.252-4.35.252-4.35s.247-1.853 1-2.67c.868-.968 1.83-1.065 2.37-1.12l.156-.017 8.827-.273 8.817.273.156.017c.54.055 1.5.152 2.37 1.12zm-6.617 8.042l-7.877 4.727V9.096l7.877 4.726z" fill="#fff"/></svg></svg>