<svg id="icon-twitter-2" xmlns="http://www.w3.org/2000/svg" viewBox="0 0 40 40" color="#d4d4d8" fill="none"><path d="M38 8.463a14.695 14.695 0 01-4.242 1.163 7.399 7.399 0 003.247-4.087 14.785 14.785 0 01-4.69 1.794A7.376 7.376 0 0026.925 5a7.386 7.386 0 00-7.386 7.386c0 .578.065 1.141.192 1.683A20.969 20.969 0 014.507 6.352a7.348 7.348 0 00-1 3.714 7.382 7.382 0 003.285 6.147 7.366 7.366 0 01-3.345-.924v.093a7.392 7.392 0 005.924 7.242 7.425 7.425 0 01-3.336.126 7.394 7.394 0 006.9 5.129 14.817 14.817 0 01-9.173 3.162A14.86 14.86 0 012 30.937a20.9 20.9 0 0011.322 3.319c13.586 0 21.014-11.254 21.014-21.014 0-.32-.007-.64-.02-.957A14.96 14.96 0 0038 8.463z" fill="currentColor"/></svg>