<svg id="icon-youtube-2" viewBox="0 0 40 40" color="#d4d4d8" fill="none" xmlns="http://www.w3.org/2000/svg"><path fill-rule="evenodd" clip-rule="evenodd" d="M36.21 8.014c1.079 1.166 1.43 3.814 1.43 3.814s.36 3.107.36 6.216v2.912c0 3.108-.36 6.215-.36 6.215s-.352 2.647-1.43 3.81c-1.235 1.378-2.603 1.521-3.376 1.602a10.76 10.76 0 00-.231.026c-5.038.386-12.603.4-12.603.4s-9.36-.092-12.24-.387a7.701 7.701 0 00-.489-.072c-.912-.117-2.343-.301-3.48-1.57-1.08-1.163-1.43-3.81-1.43-3.81S2 24.064 2 20.955v-2.913c0-3.107.36-6.214.36-6.214s.352-2.648 1.43-3.814c1.24-1.382 2.613-1.521 3.384-1.6.082-.008.156-.015.223-.023C12.434 6 19.991 6 19.991 6h.017s7.557 0 12.595.39c.067.009.141.016.223.025.771.078 2.145.217 3.384 1.6zm-9.452 11.49l-11.254 6.752V12.752l11.254 6.752z" fill="currentColor"/></svg>